<svg xmlns="http://www.w3.org/2000/svg" viewBox="0 0 1200 630" role="img" aria-labelledby="title desc">
  <title id="title">FleetSim compute fleet</title>
  <desc id="desc">Cute TPU, NVIDIA GPU, and AMD GPU cards hugging a heart.</desc>
  <rect width="1200" height="630" fill="#f7fbff"/>
  <path d="M0 510c180-80 350-55 520-10s340 75 680-35v165H0z" fill="#eaf6f0"/>
  <g fill="none" stroke="#bfd4e8" stroke-width="4" opacity=".8">
    <path d="M80 130h190m665 0h185M85 500h220m600 0h210"/>
    <circle cx="175" cy="130" r="10" fill="#bfd4e8"/><circle cx="1030" cy="130" r="10" fill="#bfd4e8"/>
  </g>
  <text x="600" y="92" text-anchor="middle" font-family="Arial,sans-serif" font-size="56" font-weight="800" fill="#203040">FleetSim</text>
  <g font-family="Arial,sans-serif" font-weight="800" filter="drop-shadow(0 18px 18px rgb(53 80 112 / .18))">
    <g transform="translate(230 220) rotate(-7)">
      <rect width="255" height="265" rx="38" fill="#fff" stroke="#5f9cff" stroke-width="8"/>
      <rect x="32" y="36" width="191" height="72" rx="18" fill="#dceeff"/>
      <path transform="translate(96 38) scale(2.65)" fill="#4285f4" d="M12.48 10.92v3.28h7.84c-.24 1.84-.853 3.187-1.787 4.133-1.147 1.147-2.933 2.4-6.053 2.4-4.827 0-8.6-3.893-8.6-8.72s3.773-8.72 8.6-8.72c2.6 0 4.507 1.027 5.907 2.347l2.307-2.307C18.747 1.44 16.133 0 12.48 0 5.867 0 .307 5.387.307 12s5.56 12 12.173 12c3.573 0 6.267-1.173 8.373-3.36 2.16-2.16 2.84-5.213 2.84-7.667 0-.76-.053-1.467-.173-2.053H12.48z"/>
      <circle cx="86" cy="154" r="14" fill="#27364a"/><circle cx="170" cy="154" r="14" fill="#27364a"/>
      <path d="M96 194q32 30 64 0" stroke="#27364a" stroke-width="8" stroke-linecap="round" fill="none"/>
      <path d="M244 170q70 35 96 104" stroke="#5f9cff" stroke-width="20" stroke-linecap="round"/>
    </g>
    <g transform="translate(470 170)">
      <rect width="260" height="320" rx="42" fill="#fff" stroke="#5fcf8f" stroke-width="8"/>
      <rect x="30" y="44" width="200" height="76" rx="18" fill="#dcf8e8"/>
      <path transform="translate(82 35) scale(4)" fill="#76b900" d="M8.948 8.798v-1.43a6.7 6.7 0 0 1 .424-.018c3.922-.124 6.493 3.374 6.493 3.374s-2.774 3.851-5.75 3.851c-.398 0-.787-.062-1.158-.185v-4.346c1.528.185 1.837.857 2.747 2.385l2.04-1.714s-1.492-1.952-4-1.952a6.016 6.016 0 0 0-.796.035m0-4.735v2.138l.424-.027c5.45-.185 9.01 4.47 9.01 4.47s-4.08 4.964-8.33 4.964c-.37 0-.733-.035-1.095-.097v1.325c.3.035.61.062.91.062 3.957 0 6.82-2.023 9.593-4.408.459.371 2.34 1.263 2.73 1.652-2.633 2.208-8.772 3.984-12.253 3.984-.335 0-.653-.018-.971-.053v1.864H24V4.063zm0 10.326v1.131c-3.657-.654-4.673-4.46-4.673-4.46s1.758-1.944 4.673-2.262v1.237H8.94c-1.528-.186-2.73 1.245-2.73 1.245s.68 2.412 2.739 3.11M2.456 10.9s2.164-3.197 6.5-3.533V6.201C4.153 6.59 0 10.653 0 10.653s2.35 6.802 8.948 7.42v-1.237c-4.84-.6-6.492-5.936-6.492-5.936z"/>
      <circle cx="88" cy="174" r="14" fill="#27364a"/><circle cx="172" cy="174" r="14" fill="#27364a"/>
      <path d="M98 214q32 28 64 0" stroke="#27364a" stroke-width="8" stroke-linecap="round" fill="none"/>
      <path d="M22 198q-62 42-92 110M238 198q62 42 92 110" stroke="#5fcf8f" stroke-width="20" stroke-linecap="round"/>
    </g>
    <g transform="translate(710 222) rotate(7)">
      <rect width="255" height="260" rx="38" fill="#fff" stroke="#ff7d8a" stroke-width="8"/>
      <rect x="32" y="36" width="191" height="72" rx="18" fill="#ffe2e5"/>
      <path transform="translate(55 28) scale(5)" fill="#ed1c24" d="M18.324 9.137l1.559 1.56h2.556v2.557L24 14.814V9.137zM2 9.52l-2 4.96h1.309l.37-.982H3.9l.408.982h1.338L3.432 9.52zm4.209 0v4.955h1.238v-3.092l1.338 1.562h.188l1.338-1.556v3.091h1.238V9.52H10.47l-1.592 1.845L7.287 9.52zm6.283 0v4.96h2.057c1.979 0 2.88-1.046 2.88-2.472 0-1.36-.937-2.488-2.747-2.488zm1.237.91h.792c1.17 0 1.63.711 1.63 1.57 0 .728-.372 1.572-1.616 1.572h-.806zm-10.985.273l.791 1.932H2.008zm17.137.307l-1.604 1.603v2.25h2.246l1.604-1.607h-2.246z"/>
      <circle cx="86" cy="154" r="14" fill="#27364a"/><circle cx="170" cy="154" r="14" fill="#27364a"/>
      <path d="M96 194q32 30 64 0" stroke="#27364a" stroke-width="8" stroke-linecap="round" fill="none"/>
      <path d="M12 170q-70 35-96 104" stroke="#ff7d8a" stroke-width="20" stroke-linecap="round"/>
    </g>
    <path d="M600 450c-39-53-112-30-112 32 0 70 112 126 112 126s112-56 112-126c0-62-73-85-112-32z" fill="#ff4d6d" stroke="#fff" stroke-width="10"/>
  </g>
</svg>
